<svg width="283" height="91" viewBox="0 0 283 91" fill="none" xmlns="http://www.w3.org/2000/svg">
<path d="M11.9927 24.8874C11.9927 11.4186 22.9113 0.5 36.3801 0.5V0.5V35.7976H11.9927V24.8874Z" fill="#E6EDFF" stroke="#E6EDFF"/>
<rect x="11.9927" y="35.7969" width="24.3874" height="19.4046" fill="#E6EDFF" stroke="#E6EDFF"/>
<path d="M36.3801 55.2031V90.501C30.4741 90.501 25.0589 88.4005 20.8391 84.9072C16.6295 87.7119 9.8797 90.3794 1.72388 88.8965C3.97009 87.9338 12.6336 82.1574 12.3127 70.6055C12.352 70.6595 12.3941 70.7121 12.4368 70.7637C12.1461 69.2582 11.9924 67.7036 11.9924 66.1133V55.2031H36.3801Z" fill="#E6EDFF"/>
<path d="M36.3801 55.2031H36.8801V54.7031H36.3801V55.2031ZM36.3801 90.501V91.001H36.8801V90.501H36.3801ZM20.8391 84.9072L21.158 84.5221L20.8714 84.2849L20.5619 84.4911L20.8391 84.9072ZM1.72388 88.8965L1.52692 88.4369L9.11951e-05 89.0913L1.63443 89.3884L1.72388 88.8965ZM12.3127 70.6055L12.7171 70.3114L11.7681 69.0065L11.8129 70.6194L12.3127 70.6055ZM12.4368 70.7637L12.0515 71.0824L12.9277 70.6689L12.4368 70.7637ZM11.9924 55.2031V54.7031H11.4924V55.2031H11.9924ZM36.3801 55.2031H35.8801V90.501H36.3801H36.8801V55.2031H36.3801ZM36.3801 90.501V90.001C30.5949 90.001 25.2914 87.9439 21.158 84.5221L20.8391 84.9072L20.5203 85.2924C24.8263 88.857 30.3534 91.001 36.3801 91.001V90.501ZM20.8391 84.9072L20.5619 84.4911C16.4296 87.2442 9.80981 89.8585 1.81332 88.4045L1.72388 88.8965L1.63443 89.3884C9.94959 90.9003 16.8293 88.1795 21.1163 85.3233L20.8391 84.9072ZM1.72388 88.8965L1.92084 89.3561C3.12056 88.8419 5.91414 87.1061 8.37142 84.0343C10.8385 80.9502 12.9768 76.5056 12.8126 70.5916L12.3127 70.6055L11.8129 70.6194C11.9695 76.2573 9.93654 80.4769 7.59053 83.4096C5.2347 86.3546 2.57341 87.9884 1.52692 88.4369L1.72388 88.8965ZM12.3127 70.6055L11.9084 70.8996C11.9563 70.9655 12.0057 71.027 12.0515 71.0824L12.4368 70.7637L12.822 70.445C12.7825 70.3972 12.7478 70.3535 12.7171 70.3114L12.3127 70.6055ZM12.4368 70.7637L12.9277 70.6689C12.643 69.1942 12.4924 67.6714 12.4924 66.1133H11.9924H11.4924C11.4924 67.7359 11.6492 69.3222 11.9458 70.8585L12.4368 70.7637ZM11.9924 66.1133H12.4924V55.2031H11.9924H11.4924V66.1133H11.9924ZM11.9924 55.2031V55.7031H36.3801V55.2031V54.7031H11.9924V55.2031Z" fill="#E6EDFF"/>
<rect x="36.3801" y="0.5" width="220.956" height="90" fill="#E6EDFF"/>
<rect x="36.3801" y="0.5" width="220.956" height="90" stroke="#E6EDFF"/>
<path d="M281.724 24.8874C281.724 11.4186 270.805 0.5 257.336 0.5V0.5V35.7976H281.724V24.8874Z" fill="#E6EDFF" stroke="#E6EDFF"/>
<rect width="24.3874" height="19.4048" transform="matrix(-1 0 0 1 281.724 35.7969)" fill="#E6EDFF" stroke="#E6EDFF"/>
<path d="M281.724 66.1126C281.724 79.5814 270.805 90.5 257.336 90.5V90.5V55.2024H281.724V66.1126Z" fill="#E6EDFF" stroke="#E6EDFF"/>
</svg>
