<svg width="18" height="18" viewBox="0 0 18 18" fill="none" xmlns="http://www.w3.org/2000/svg">
<g clip-path="url(#clip0_2685_3382)">
<path d="M8.99944 10.285C10.7746 10.285 12.2137 8.84593 12.2137 7.07073C12.2137 5.29553 10.7746 3.85645 8.99944 3.85645C7.22424 3.85645 5.78516 5.29553 5.78516 7.07073C5.78516 8.84593 7.22424 10.285 8.99944 10.285Z" stroke="#3C3C3C" stroke-linecap="round" stroke-linejoin="round"/>
<path d="M3.50977 15.2998C4.08351 14.358 4.88986 13.5797 5.85132 13.0396C6.81277 12.4995 7.897 12.2158 8.99977 12.2158C10.1025 12.2158 11.1868 12.4995 12.1482 13.0396C13.1097 13.5797 13.916 14.358 14.4898 15.2998" stroke="#3C3C3C" stroke-linecap="round" stroke-linejoin="round"/>
<path d="M8.99972 17.3569C13.6152 17.3569 17.3569 13.6152 17.3569 8.99972C17.3569 4.3842 13.6152 0.642578 8.99972 0.642578C4.3842 0.642578 0.642578 4.3842 0.642578 8.99972C0.642578 13.6152 4.3842 17.3569 8.99972 17.3569Z" stroke="#3C3C3C" stroke-linecap="round" stroke-linejoin="round"/>
</g>
<defs>
<clipPath id="clip0_2685_3382">
<rect width="18" height="18" fill="white"/>
</clipPath>
</defs>
</svg>
