<svg width="16" height="16" viewBox="0 0 16 16" fill="none" xmlns="http://www.w3.org/2000/svg">
<g clip-path="url(#clip0_2685_3366)">
<path d="M4 11.9999V2.857C4 2.25079 4.24082 1.66941 4.66947 1.24076C5.09812 0.812105 5.67951 0.571289 6.28571 0.571289H13.4286" stroke="#1A1A1A" stroke-width="1.4" stroke-linecap="round" stroke-linejoin="round"/>
<path d="M11.4283 4V13.1429C11.4283 13.7491 11.1875 14.3304 10.7588 14.7591C10.3302 15.1878 9.74879 15.4286 9.14258 15.4286" stroke="#1A1A1A" stroke-width="1.4" stroke-linecap="round" stroke-linejoin="round"/>
<path d="M6.857 13.1429V12.5714C6.857 12.4199 6.7968 12.2745 6.68964 12.1674C6.58247 12.0602 6.43713 12 6.28558 12H1.14272C0.991165 12 0.84582 12.0602 0.738657 12.1674C0.631493 12.2745 0.571289 12.4199 0.571289 12.5714V13.1429C0.571289 13.7491 0.812105 14.3304 1.24076 14.7591C1.66941 15.1878 2.25079 15.4286 2.857 15.4286H9.14272C8.53651 15.4286 7.95513 15.1878 7.52647 14.7591C7.09782 14.3304 6.857 13.7491 6.857 13.1429Z" stroke="#1A1A1A" stroke-width="1.4" stroke-linecap="round" stroke-linejoin="round"/>
<path d="M13.4287 0.571289C13.9591 0.571289 14.4679 0.782003 14.8429 1.15708C15.218 1.53215 15.4287 2.04086 15.4287 2.57129V3.42843C15.4287 3.57998 15.3685 3.72533 15.2613 3.83249C15.1542 3.93966 15.0088 3.99986 14.8573 3.99986H11.4287V2.57129C11.4287 2.04086 11.6394 1.53215 12.0145 1.15708C12.3896 0.782003 12.8983 0.571289 13.4287 0.571289V0.571289Z" stroke="#1A1A1A" stroke-width="1.4" stroke-linecap="round" stroke-linejoin="round"/>
<path d="M6.85742 4.57129H8.57171" stroke="#92BA6B" stroke-width="1.4" stroke-linecap="round" stroke-linejoin="round"/>
<path d="M6.85742 8H8.57171" stroke="#92BA6B" stroke-width="1.4" stroke-linecap="round" stroke-linejoin="round"/>
</g>
<defs>
<clipPath id="clip0_2685_3366">
<rect width="16" height="16" fill="white"/>
</clipPath>
</defs>
</svg>
