<svg width="18" height="18" viewBox="0 0 18 18" fill="none" xmlns="http://www.w3.org/2000/svg">
<path d="M7.07115 7.07129H3.21401C2.53202 7.07129 1.87797 7.34221 1.39573 7.82444C0.913496 8.30668 0.642578 8.96073 0.642578 9.64272V14.7856H2.57115" stroke="#3C3C3C" stroke-linecap="round" stroke-linejoin="round"/>
<path d="M16.0713 14.7857H17.357V5.78571C17.357 5.44472 17.2215 5.1177 16.9804 4.87658C16.7393 4.63546 16.4123 4.5 16.0713 4.5H8.357C8.01601 4.5 7.68898 4.63546 7.44787 4.87658C7.20675 5.1177 7.07129 5.44472 7.07129 5.78571V13.0886" stroke="#92BA6B" stroke-linecap="round" stroke-linejoin="round"/>
<path d="M7.71387 14.7856H10.9282" stroke="#92BA6B" stroke-linecap="round" stroke-linejoin="round"/>
<path d="M5.14272 17.3572C6.56288 17.3572 7.71415 16.2059 7.71415 14.7858C7.71415 13.3656 6.56288 12.2144 5.14272 12.2144C3.72256 12.2144 2.57129 13.3656 2.57129 14.7858C2.57129 16.2059 3.72256 17.3572 5.14272 17.3572Z" stroke="#3C3C3C" stroke-linecap="round" stroke-linejoin="round"/>
<path d="M13.5001 17.3572C14.9203 17.3572 16.0716 16.2059 16.0716 14.7858C16.0716 13.3656 14.9203 12.2144 13.5001 12.2144C12.08 12.2144 10.9287 13.3656 10.9287 14.7858C10.9287 16.2059 12.08 17.3572 13.5001 17.3572Z" stroke="#3C3C3C" stroke-linecap="round" stroke-linejoin="round"/>
</svg>
