<svg width="18" height="18" viewBox="0 0 18 18" fill="none" xmlns="http://www.w3.org/2000/svg">
<g clip-path="url(#clip0_2685_3405)">
<path d="M6.7245 2.89258L7.27735 1.46544C7.37059 1.2238 7.53463 1.01596 7.74799 0.869137C7.96135 0.72231 8.21407 0.643343 8.47307 0.642578H9.52735C9.78635 0.643343 10.0391 0.72231 10.2524 0.869137C10.4658 1.01596 10.6298 1.2238 10.7231 1.46544L11.2759 2.89258L13.1531 3.97258L14.6702 3.74115C14.9228 3.70686 15.1799 3.74845 15.4089 3.86062C15.6378 3.9728 15.8282 4.1505 15.9559 4.37115L16.4702 5.27115C16.602 5.49531 16.6627 5.75417 16.6443 6.01355C16.626 6.27293 16.5294 6.52065 16.3674 6.72401L15.4288 7.91972V10.0797L16.3931 11.2754C16.5551 11.4788 16.6517 11.7265 16.6701 11.9859C16.6884 12.2453 16.6277 12.5041 16.4959 12.7283L15.9816 13.6283C15.8539 13.8489 15.6635 14.0266 15.4346 14.1388C15.2057 14.251 14.9485 14.2926 14.6959 14.2583L13.1788 14.0269L11.3016 15.1069L10.7488 16.534C10.6555 16.7756 10.4915 16.9835 10.2781 17.1303C10.0648 17.2771 9.81206 17.3561 9.55307 17.3569H8.47307C8.21407 17.3561 7.96135 17.2771 7.74799 17.1303C7.53463 16.9835 7.37059 16.7756 7.27735 16.534L6.7245 15.1069L4.84735 14.0269L3.33021 14.2583C3.07759 14.2926 2.82048 14.251 2.59155 14.1388C2.36261 14.0266 2.1722 13.8489 2.0445 13.6283L1.53021 12.7283C1.39843 12.5041 1.33771 12.2453 1.35607 11.9859C1.37444 11.7265 1.47102 11.4788 1.63307 11.2754L2.57164 10.0797V7.91972L1.60735 6.72401C1.4453 6.52065 1.34872 6.27293 1.33036 6.01355C1.312 5.75417 1.37271 5.49531 1.5045 5.27115L2.01878 4.37115C2.14648 4.1505 2.3369 3.9728 2.56583 3.86062C2.79476 3.74845 3.05188 3.70686 3.3045 3.74115L4.82164 3.97258L6.7245 2.89258ZM6.42878 8.99972C6.42878 9.5083 6.57959 10.0055 6.86215 10.4283C7.1447 10.8512 7.5463 11.1808 8.01617 11.3754C8.48603 11.57 9.00306 11.621 9.50187 11.5217C10.0007 11.4225 10.4589 11.1776 10.8185 10.818C11.1781 10.4584 11.423 10.0002 11.5222 9.50138C11.6214 9.00257 11.5705 8.48554 11.3759 8.01568C11.1813 7.54581 10.8517 7.14421 10.4288 6.86166C10.006 6.5791 9.50879 6.42829 9.00021 6.42829C8.31823 6.42829 7.66417 6.69921 7.18194 7.18145C6.6997 7.66368 6.42878 8.31774 6.42878 8.99972V8.99972Z" stroke="#3C3C3C" stroke-width="1.4" stroke-linecap="round" stroke-linejoin="round"/>
</g>
<defs>
<clipPath id="clip0_2685_3405">
<rect width="18" height="18" fill="white"/>
</clipPath>
</defs>
</svg>
