<svg width="20" height="20" viewBox="0 0 20 20" fill="none" xmlns="http://www.w3.org/2000/svg">
<g clip-path="url(#clip0_2685_3246)">
<mask id="path-1-inside-1_2685_3246" fill="white">
<path d="M18.84 14.5182C18.317 13.6174 17.5396 11.0683 17.5396 7.739C17.5396 1.93564 11.2573 -1.69146 6.23143 1.21022C3.89892 2.55689 2.46203 5.04565 2.46203 7.739C2.46203 11.0693 1.68365 13.6174 1.16064 14.5182C0.575957 15.5209 1.29593 16.7805 2.45659 16.7855L2.46204 16.7855H6.30775C6.88875 19.6285 10.3294 20.7763 12.501 18.8517C13.1118 18.3103 13.5305 17.5853 13.6939 16.7855H17.5396C18.7003 16.784 19.424 15.5265 18.8423 14.5221L18.84 14.5182ZM10.0008 18.2933C9.04263 18.293 8.18862 17.6889 7.86922 16.7855H12.1324C11.813 17.6889 10.959 18.293 10.0008 18.2933ZM2.46203 15.2778C3.18764 14.0301 3.96979 11.139 3.96979 7.739C3.96979 3.09631 8.99564 0.194623 13.0163 2.51598C14.8823 3.59331 16.0318 5.58432 16.0318 7.739C16.0318 11.1362 16.8121 14.0273 17.5396 15.2778H2.46203Z"/>
</mask>
<path d="M18.84 14.5182C18.317 13.6174 17.5396 11.0683 17.5396 7.739C17.5396 1.93564 11.2573 -1.69146 6.23143 1.21022C3.89892 2.55689 2.46203 5.04565 2.46203 7.739C2.46203 11.0693 1.68365 13.6174 1.16064 14.5182C0.575957 15.5209 1.29593 16.7805 2.45659 16.7855L2.46204 16.7855H6.30775C6.88875 19.6285 10.3294 20.7763 12.501 18.8517C13.1118 18.3103 13.5305 17.5853 13.6939 16.7855H17.5396C18.7003 16.784 19.424 15.5265 18.8423 14.5221L18.84 14.5182ZM10.0008 18.2933C9.04263 18.293 8.18862 17.6889 7.86922 16.7855H12.1324C11.813 17.6889 10.959 18.293 10.0008 18.2933ZM2.46203 15.2778C3.18764 14.0301 3.96979 11.139 3.96979 7.739C3.96979 3.09631 8.99564 0.194623 13.0163 2.51598C14.8823 3.59331 16.0318 5.58432 16.0318 7.739C16.0318 11.1362 16.8121 14.0273 17.5396 15.2778H2.46203Z" fill="#3C3C3C"/>
<path d="M18.84 14.5182L17.1104 15.5224L17.1108 15.523L18.84 14.5182ZM6.23143 1.21022L7.23143 2.94227L7.23143 2.94227L6.23143 1.21022ZM1.16064 14.5182L2.88835 15.5257L2.89029 15.5224L1.16064 14.5182ZM2.45659 16.7855L2.44792 18.7855L2.45353 18.7855L2.45659 16.7855ZM2.46204 16.7855L2.45897 18.7855H2.46204V16.7855ZM6.30775 16.7855L8.26725 16.3851L7.94036 14.7855H6.30775V16.7855ZM12.501 18.8517L13.8275 20.3485L13.8275 20.3485L12.501 18.8517ZM13.6939 16.7855V14.7855H12.0613L11.7344 16.3851L13.6939 16.7855ZM17.5396 16.7855V18.7855L17.5423 18.7855L17.5396 16.7855ZM18.8423 14.5221L20.573 13.5198L20.5716 13.5174L18.8423 14.5221ZM10.0008 18.2933L10.0002 20.2933H10.0014L10.0008 18.2933ZM7.86922 16.7855V14.7855H5.04079L5.98361 17.4522L7.86922 16.7855ZM12.1324 16.7855L14.018 17.4522L14.9608 14.7855H12.1324V16.7855ZM2.46203 15.2778L0.733145 14.2723L-1.01475 17.2778H2.46203V15.2778ZM13.0163 2.51597L12.0163 4.24802L12.0163 4.24803L13.0163 2.51597ZM17.5396 15.2778V17.2778H21.017L19.2683 14.2721L17.5396 15.2778ZM18.84 14.5182L20.5697 13.5141C20.2796 13.0144 19.5396 10.8464 19.5396 7.739H17.5396H15.5396C15.5396 11.2902 16.3545 14.2204 17.1104 15.5224L18.84 14.5182ZM17.5396 7.739H19.5396C19.5396 0.396039 11.5906 -4.19331 5.23143 -0.521834L6.23143 1.21022L7.23143 2.94227C10.924 0.810389 15.5396 3.47524 15.5396 7.739H17.5396ZM6.23143 1.21022L5.23143 -0.521834C2.28012 1.1821 0.462028 4.33111 0.462028 7.739H2.46203H4.46203C4.46203 5.76018 5.51772 3.93168 7.23143 2.94227L6.23143 1.21022ZM2.46203 7.739H0.462028C0.462028 10.8467 -0.278632 13.0139 -0.569004 13.5141L1.16064 14.5182L2.89029 15.5224C3.64594 14.2208 4.46203 11.2918 4.46203 7.739H2.46203ZM1.16064 14.5182L-0.567056 13.5108C-1.92731 15.8434 -0.25233 18.7738 2.44792 18.7855L2.45659 16.7855L2.46526 14.7855C2.84418 14.7872 3.07923 15.1984 2.88835 15.5257L1.16064 14.5182ZM2.45659 16.7855L2.45353 18.7855L2.45897 18.7855L2.46204 16.7855L2.4651 14.7855L2.45966 14.7855L2.45659 16.7855ZM2.46204 16.7855V18.7855H6.30775V16.7855V14.7855H2.46204V16.7855ZM6.30775 16.7855L4.34826 17.186C5.23751 21.5373 10.5038 23.2943 13.8275 20.3485L12.501 18.8517L11.1744 17.355C10.1551 18.2584 8.53998 17.7196 8.26725 16.3851L6.30775 16.7855ZM12.501 18.8517L13.8275 20.3485C14.7625 19.5198 15.4032 18.41 15.6534 17.186L13.6939 16.7855L11.7344 16.3851C11.6577 16.7605 11.4612 17.1008 11.1744 17.355L12.501 18.8517ZM13.6939 16.7855V18.7855H17.5396V16.7855V14.7855H13.6939V16.7855ZM17.5396 16.7855L17.5423 18.7855C20.2426 18.7819 21.9263 15.8565 20.573 13.5198L18.8423 14.5221L17.1116 15.5245C16.9217 15.1966 17.158 14.786 17.5369 14.7855L17.5396 16.7855ZM18.8423 14.5221L20.5716 13.5174L20.5693 13.5135L18.84 14.5182L17.1108 15.523L17.113 15.5269L18.8423 14.5221ZM10.0008 18.2933L10.0014 16.2933C9.89059 16.2933 9.79179 16.2234 9.75484 16.1189L7.86922 16.7855L5.98361 17.4522C6.58545 19.1545 8.19467 20.2927 10.0002 20.2933L10.0008 18.2933ZM7.86922 16.7855V18.7855H12.1324V16.7855V14.7855H7.86922V16.7855ZM12.1324 16.7855L10.2468 16.1189C10.2098 16.2234 10.111 16.2933 10.0002 16.2933L10.0008 18.2933L10.0014 20.2933C11.807 20.2927 13.4162 19.1545 14.018 17.4522L12.1324 16.7855ZM2.46203 15.2778L4.19091 16.2833C5.15394 14.6273 5.96979 11.3503 5.96979 7.739H3.96979H1.96979C1.96979 10.9277 1.22134 13.4329 0.733145 14.2723L2.46203 15.2778ZM3.96979 7.739H5.96979C5.96979 4.63591 9.32898 2.69648 12.0163 4.24802L13.0163 2.51597L14.0163 0.783925C8.66231 -2.30723 1.96979 1.55671 1.96979 7.739H3.96979ZM13.0163 2.51597L12.0163 4.24803C13.2635 4.9681 14.0318 6.29885 14.0318 7.739H16.0318H18.0318C18.0318 4.86979 16.5011 2.21852 14.0163 0.783923L13.0163 2.51597ZM16.0318 7.739H14.0318C14.0318 11.3468 14.8456 14.6242 15.8109 16.2835L17.5396 15.2778L19.2683 14.2721C18.7787 13.4303 18.0318 10.9255 18.0318 7.739H16.0318ZM17.5396 15.2778V13.2778H2.46203V15.2778V17.2778H17.5396V15.2778Z" fill="#3C3C3C" mask="url(#path-1-inside-1_2685_3246)"/>
</g>
<defs>
<clipPath id="clip0_2685_3246">
<rect width="20" height="20" fill="white"/>
</clipPath>
</defs>
</svg>
