<svg width="20" height="20" viewBox="0 0 20 20" fill="none" xmlns="http://www.w3.org/2000/svg">
<g clip-path="url(#clip0_2685_3246)">
<mask id="path-1-inside-1_2685_3246" fill="white">
<path d="M18.84 14.5182C18.317 13.6174 17.5396 11.0683 17.5396 7.739C17.5396 1.93564 11.2573 -1.69146 6.23143 1.21022C3.89892 2.55689 2.46203 5.04565 2.46203 7.739C2.46203 11.0693 1.68365 13.6174 1.16064 14.5182C0.575957 15.5209 1.29593 16.7805 2.45659 16.7855L2.46204 16.7855H6.30775C6.88875 19.6285 10.3294 20.7763 12.501 18.8517C13.1118 18.3103 13.5305 17.5853 13.6939 16.7855H17.5396C18.7003 16.784 19.424 15.5265 18.8423 14.5221L18.84 14.5182ZM10.0008 18.2933C9.04263 18.293 8.18862 17.6889 7.86922 16.7855H12.1324C11.813 17.6889 10.959 18.293 10.0008 18.2933ZM2.46203 15.2778C3.18764 14.0301 3.96979 11.139 3.96979 7.739C3.96979 3.09631 8.99564 0.194623 13.0163 2.51598C14.8823 3.59331 16.0318 5.58432 16.0318 7.739C16.0318 11.1362 16.8121 14.0273 17.5396 15.2778H2.46203Z"/>
</mask>
<path d="M18.84 14.5182C18.317 13.6174 17.5396 11.0683 17.5396 7.739C17.5396 1.93564 11.2573 -1.69146 6.23143 1.21022C3.89892 2.55689 2.46203 5.04565 2.46203 7.739C2.46203 11.0693 1.68365 13.6174 1.16064 14.5182C0.575957 15.5209 1.29593 16.7805 2.45659 16.7855L2.46204 16.7855H6.30775C6.88875 19.6285 10.3294 20.7763 12.501 18.8517C13.1118 18.3103 13.5305 17.5853 13.6939 16.7855H17.5396C18.7003 16.784 19.424 15.5265 18.8423 14.5221L18.84 14.5182ZM10.0008 18.2933C9.04263 18.293 8.18862 17.6889 7.86922 16.7855H12.1324C11.813 17.6889 10.959 18.293 10.0008 18.2933ZM2.46203 15.2778C3.18764 14.0301 3.96979 11.139 3.96979 7.739C3.96979 3.09631 8.99564 0.194623 13.0163 2.51598C14.8823 3.59331 16.0318 5.58432 16.0318 7.739C16.0318 11.1362 16.8121 14.0273 17.5396 15.2778H2.46203Z" fill="currentColor" mask="url(#path-1-inside-1_2685_3246)"/>
</g>
<defs>
<clipPath id="clip0_2685_3246">
<rect width="20" height="20" fill="white"/>
</clipPath>
</defs>
</svg>
