<svg width="18" height="17" viewBox="0 0 18 17" fill="none" xmlns="http://www.w3.org/2000/svg">
<path d="M1.5 2.125H6C6.79565 2.125 7.55871 2.42351 8.12132 2.95486C8.68393 3.48622 9 4.20689 9 4.95833V14.875C9 14.3114 8.76295 13.7709 8.34099 13.3724C7.91903 12.9739 7.34674 12.75 6.75 12.75H1.5V2.125Z" stroke="#1A1A1A" stroke-width="2" stroke-linecap="round" stroke-linejoin="round"/>
<path d="M16.5 2.125H12C11.2044 2.125 10.4413 2.42351 9.87868 2.95486C9.31607 3.48622 9 4.20689 9 4.95833V14.875C9 14.3114 9.23705 13.7709 9.65901 13.3724C10.081 12.9739 10.6533 12.75 11.25 12.75H16.5V2.125Z" stroke="#1A1A1A" stroke-width="2" stroke-linecap="round" stroke-linejoin="round"/>
</svg>
