<svg width="15" height="16" viewBox="0 0 15 16" fill="none" xmlns="http://www.w3.org/2000/svg">
<g clip-path="url(#clip0_3473_294)">
<path d="M3.00049 15H11.9993" stroke="currentColor" stroke-width="1.4" stroke-linecap="round" stroke-linejoin="round"/>
<path d="M13.9292 4.12209C13.8275 3.67041 13.6185 3.25495 13.3229 2.91645C13.0272 2.57795 12.655 2.32803 12.2426 2.19119C11.8302 2.05436 11.392 2.03531 10.9707 2.13591C10.5495 2.23651 10.1597 2.45331 9.83969 2.76505C9.66501 2.24776 9.34678 1.80091 8.92822 1.48514C8.50965 1.16938 8.01101 1 7.5 1C6.98899 1 6.49035 1.16938 6.07178 1.48514C5.65322 1.80091 5.33499 2.24776 5.16031 2.76505C4.84028 2.45331 4.45054 2.23651 4.02929 2.13591C3.60804 2.03531 3.16975 2.05436 2.7574 2.19119C2.34504 2.32803 1.97278 2.57795 1.67712 2.91645C1.38145 3.25495 1.17253 3.67041 1.07085 4.12209C0.991401 4.47457 0.978621 4.84067 1.03327 5.19858C1.08791 5.5565 1.20887 5.8989 1.38893 6.20541C1.56899 6.51192 1.80447 6.77626 2.08136 6.98269C2.35824 7.18913 2.67086 7.33343 3.00059 7.407V11.2304C3.00059 11.5161 3.10594 11.79 3.29345 11.992C3.48096 12.194 3.73528 12.3074 4.00046 12.3074H10.9995C11.2647 12.3074 11.519 12.194 11.7066 11.992C11.8941 11.79 11.9994 11.5161 11.9994 11.2304V7.407C12.3291 7.33343 12.6418 7.18913 12.9186 6.98269C13.1955 6.77626 13.431 6.51192 13.6111 6.20541C13.7911 5.8989 13.9121 5.5565 13.9667 5.19858C14.0214 4.84067 14.0086 4.47457 13.9292 4.12209V4.12209Z" stroke="currentColor" stroke-width="1.4" stroke-linecap="round" stroke-linejoin="round"/>
<path d="M3.00049 9.61523H11.9993" stroke="currentColor" stroke-width="1.4" stroke-linecap="round" stroke-linejoin="round"/>
</g>
<defs>
<clipPath id="clip0_3473_294">
<rect width="15" height="16" fill="white"/>
</clipPath>
</defs>
</svg>
