<svg width="13" height="11" viewBox="0 0 13 11" fill="none" xmlns="http://www.w3.org/2000/svg">
<path d="M2.99756 4.48644L5.20803 0.953166C5.2937 0.813513 5.41407 0.698429 5.55744 0.619123C5.7008 0.539817 5.86225 0.498993 6.02608 0.500629V0.500629C6.15511 0.495972 6.28376 0.517227 6.40443 0.563137C6.5251 0.609048 6.63534 0.678683 6.72864 0.767926C6.82194 0.85717 6.8964 0.964211 6.94763 1.08272C6.99886 1.20124 7.02581 1.32881 7.02688 1.45792V3.99039H10.8473C10.9885 3.99497 11.1271 4.02938 11.254 4.09135C11.381 4.15333 11.4933 4.24146 11.5837 4.34997C11.6742 4.45848 11.7406 4.58489 11.7787 4.72091C11.8167 4.85693 11.8256 4.99946 11.8046 5.13914L11.1084 9.62971C11.0787 9.86969 10.9624 10.0906 10.7813 10.2508C10.6002 10.4111 10.3668 10.4997 10.125 10.5H4.41609C4.14432 10.501 3.87608 10.4384 3.63285 10.3172L3.00626 10.0039" stroke="#777777" stroke-linecap="round" stroke-linejoin="round"/>
<path d="M2.99756 4.48633V9.9777" stroke="#777777" stroke-linecap="round" stroke-linejoin="round"/>
<path d="M0.935132 4.48633H2.99766V9.9777H0.935132C0.819728 9.9777 0.70905 9.93185 0.627447 9.85025C0.545844 9.76865 0.5 9.65797 0.5 9.54257V4.92146C0.5 4.80606 0.545844 4.69538 0.627447 4.61378C0.70905 4.53217 0.819728 4.48633 0.935132 4.48633V4.48633Z" stroke="#777777" stroke-linecap="round" stroke-linejoin="round"/>
</svg>
