<svg width="18" height="17" viewBox="0 0 18 17" fill="none" xmlns="http://www.w3.org/2000/svg">
<path d="M16.0379 14.5223L1.81648 9.56246C1.58444 9.48151 1.38229 9.33228 1.23658 9.13437C1.09087 8.93647 1.0084 8.69913 1 8.45351V7.1252C1.001 6.87329 1.08005 6.62788 1.22627 6.42274C1.37248 6.2176 1.57868 6.06282 1.81648 5.97969L16.0379 1.03205C16.1292 1.0012 16.2265 0.992459 16.3219 1.00653C16.4172 1.0206 16.5078 1.05709 16.5863 1.11299C16.6649 1.16889 16.729 1.24262 16.7734 1.32811C16.8179 1.41361 16.8415 1.50843 16.8422 1.6048V13.9495C16.8415 14.0459 16.8179 14.1407 16.7734 14.2262C16.729 14.3117 16.6649 14.3854 16.5863 14.4413C16.5078 14.4973 16.4172 14.5337 16.3219 14.5478C16.2265 14.5619 16.1292 14.5531 16.0379 14.5223Z" stroke="#1A1A1A" stroke-width="2" stroke-linecap="round" stroke-linejoin="round"/>
<path d="M10.7256 12.6948C10.623 13.5413 10.2015 14.3168 9.54713 14.8635C8.89273 15.4101 8.05455 15.6868 7.2033 15.6371C6.35206 15.5874 5.55178 15.2151 4.96545 14.5959C4.37911 13.9768 4.05083 13.1575 4.04745 12.3048V10.3672" stroke="#1A1A1A" stroke-width="2" stroke-linecap="round" stroke-linejoin="round"/>
</svg>
