<svg width="14" height="14" viewBox="0 0 14 14" fill="none" xmlns="http://www.w3.org/2000/svg">
<g clip-path="url(#clip0_2685_7892)">
<path d="M0.5 13.5H11.5" stroke="#3C3C3C" stroke-width="1.8" stroke-linecap="round" stroke-linejoin="round"/>
<path d="M6.5 9.99994L3.5 10.5399L4 7.49994L10.73 0.789939C10.823 0.696211 10.9336 0.621816 11.0554 0.571048C11.1773 0.520279 11.308 0.494141 11.44 0.494141C11.572 0.494141 11.7027 0.520279 11.8246 0.571048C11.9464 0.621816 12.057 0.696211 12.15 0.789939L13.21 1.84994C13.3037 1.9429 13.3781 2.0535 13.4289 2.17536C13.4797 2.29722 13.5058 2.42793 13.5058 2.55994C13.5058 2.69195 13.4797 2.82266 13.4289 2.94452C13.3781 3.06637 13.3037 3.17698 13.21 3.26994L6.5 9.99994Z" stroke="#3C3C3C" stroke-width="1.4" stroke-linecap="round" stroke-linejoin="round"/>
</g>
<defs>
<clipPath id="clip0_2685_7892">
<rect width="14" height="14" fill="white"/>
</clipPath>
</defs>
</svg>
