<svg width="17" height="17" viewBox="0 0 17 17" fill="none" xmlns="http://www.w3.org/2000/svg">
<g clip-path="url(#clip0_2174_2649)">
<path d="M8.5 12.1672V13.3937" stroke="#1A1A1A" stroke-linecap="round" stroke-linejoin="round"/>
<path d="M8.5 6.08374V7.22517" stroke="#1A1A1A" stroke-linecap="round" stroke-linejoin="round"/>
<path d="M8.50001 16.3808C12.75 16.3808 15.7857 14.8751 15.7857 11.5237C15.7857 7.8808 13.9643 5.45223 10.3214 3.6308L11.7543 1.78509C11.8271 1.66399 11.8666 1.52579 11.8687 1.38452C11.8709 1.24324 11.8357 1.1039 11.7667 0.980619C11.6976 0.857339 11.5972 0.754502 11.4756 0.682531C11.354 0.610561 11.2156 0.572015 11.0743 0.570801H5.92572C5.78443 0.572015 5.64598 0.610561 5.52439 0.682531C5.4028 0.754502 5.30239 0.857339 5.23336 0.980619C5.16432 1.1039 5.1291 1.24324 5.13127 1.38452C5.13345 1.52579 5.17293 1.66399 5.24572 1.78509L6.67858 3.64294C3.03572 5.47652 1.21429 7.90509 1.21429 11.5479C1.21429 14.8751 4.25001 16.3808 8.50001 16.3808Z" stroke="#1A1A1A" stroke-width="1.4" stroke-linecap="round" stroke-linejoin="round"/>
<path d="M7.28574 11.6086C7.4339 11.7844 7.62038 11.924 7.83087 12.0167C8.04136 12.1093 8.27026 12.1524 8.50002 12.1429C8.8512 12.1668 9.19798 12.0536 9.46746 11.8272C9.73694 11.6007 9.90812 11.2786 9.94502 10.9286C9.90812 10.5785 9.73694 10.2564 9.46746 10.0299C9.19798 9.8035 8.8512 9.69034 8.50002 9.71428C8.14884 9.73822 7.80206 9.62507 7.53258 9.39862C7.26311 9.17217 7.09192 8.85005 7.05502 8.5C7.08896 8.14872 7.25931 7.82476 7.5295 7.59771C7.79969 7.37066 8.14815 7.25864 8.50002 7.28571C8.72574 7.2719 8.95171 7.3083 9.16168 7.39229C9.37164 7.47627 9.56038 7.60576 9.71431 7.77143" stroke="#1A1A1A" stroke-linecap="round" stroke-linejoin="round"/>
</g>
<defs>
<clipPath id="clip0_2174_2649">
<rect width="17" height="17" fill="white"/>
</clipPath>
</defs>
</svg>
