<svg width="32" height="32" viewBox="0 0 32 32" fill="none" xmlns="http://www.w3.org/2000/svg">
<mask id="path-1-inside-1_898_2730" fill="white">
<path d="M26 27V24.4298C26 23.0665 25.398 21.7591 24.3263 20.7951C23.2547 19.8311 21.8012 19.2895 20.2857 19.2895H11.7143C10.1988 19.2895 8.74531 19.8311 7.67368 20.7951C6.60204 21.7591 6 23.0665 6 24.4298V27"/>
<path d="M16 15.2806C19.1559 15.2806 21.7143 12.9792 21.7143 10.1403C21.7143 7.3014 19.1559 5 16 5C12.8441 5 10.2857 7.3014 10.2857 10.1403C10.2857 12.9792 12.8441 15.2806 16 15.2806Z"/>
</mask>
<path d="M26 27V24.4298C26 23.0665 25.398 21.7591 24.3263 20.7951C23.2547 19.8311 21.8012 19.2895 20.2857 19.2895H11.7143C10.1988 19.2895 8.74531 19.8311 7.67368 20.7951C6.60204 21.7591 6 23.0665 6 24.4298V27" fill="#FFD515"/>
<path d="M16 15.2806C19.1559 15.2806 21.7143 12.9792 21.7143 10.1403C21.7143 7.3014 19.1559 5 16 5C12.8441 5 10.2857 7.3014 10.2857 10.1403C10.2857 12.9792 12.8441 15.2806 16 15.2806Z" fill="#FFD515"/>
<path d="M25 27V28H27V27H26H25ZM20.2857 19.2895V18.2895V19.2895ZM11.7143 19.2895V18.2895V19.2895ZM6 24.4298H5H6ZM5 27V28H7V27H6H5ZM26 27H27V24.4298H26H25V27H26ZM26 24.4298H27C27 22.7651 26.2639 21.193 24.9951 20.0516L24.3263 20.7951L23.6575 21.5385C24.532 22.3252 25 23.368 25 24.4298H26ZM24.3263 20.7951L24.9951 20.0516C23.7298 18.9134 22.0343 18.2895 20.2857 18.2895V19.2895V20.2895C21.5682 20.2895 22.7796 20.7488 23.6575 21.5385L24.3263 20.7951ZM20.2857 19.2895V18.2895H11.7143V19.2895V20.2895H20.2857V19.2895ZM11.7143 19.2895V18.2895C9.96571 18.2895 8.27021 18.9134 7.00489 20.0516L7.67368 20.7951L8.34246 21.5385C9.22041 20.7488 10.4318 20.2895 11.7143 20.2895V19.2895ZM7.67368 20.7951L7.00489 20.0516C5.73609 21.193 5 22.7651 5 24.4298H6H7C7 23.368 7.46799 22.3252 8.34246 21.5385L7.67368 20.7951ZM6 24.4298H5V27H6H7V24.4298H6ZM21.7143 10.1403H20.7143C20.7143 12.33 18.7058 14.2806 16 14.2806V15.2806V16.2806C19.606 16.2806 22.7143 13.6285 22.7143 10.1403H21.7143ZM16 15.2806V14.2806C13.2942 14.2806 11.2857 12.33 11.2857 10.1403H10.2857H9.28571C9.28571 13.6285 12.394 16.2806 16 16.2806V15.2806ZM10.2857 10.1403H11.2857C11.2857 7.95062 13.2942 6 16 6V5V4C12.394 4 9.28571 6.65218 9.28571 10.1403H10.2857ZM16 5V6C18.7058 6 20.7143 7.95062 20.7143 10.1403H21.7143H22.7143C22.7143 6.65218 19.606 4 16 4V5Z" fill="#FFD515" mask="url(#path-1-inside-1_898_2730)"/>
</svg>
