<svg width="32" height="32" viewBox="0 0 32 32" fill="none" xmlns="http://www.w3.org/2000/svg">
<path d="M7.99977 18.4935C6.64772 18.2032 5.46129 17.3991 4.69077 16.2507C3.92024 15.1024 3.62587 13.6997 3.86974 12.3385C4.11362 10.9773 4.87667 9.76405 5.99794 8.95467C7.11921 8.14528 8.51102 7.80306 9.87977 8.0002C10.2166 7.23571 10.6912 6.53969 11.2798 5.94686C11.899 5.32602 12.6347 4.83345 13.4447 4.49736C14.2546 4.16128 15.1229 3.98828 15.9998 3.98828C16.8767 3.98828 17.745 4.16128 18.5549 4.49736C19.3648 4.83345 20.1005 5.32602 20.7198 5.94686C21.3084 6.53969 21.7829 7.23571 22.1198 8.0002C23.4885 7.80306 24.8803 8.14528 26.0016 8.95467C27.1229 9.76405 27.8859 10.9773 28.1298 12.3385C28.3737 13.6997 28.0793 15.1024 27.3088 16.2507C26.5383 17.3991 25.3518 18.2032 23.9998 18.4935V28.0002H7.99977V18.4935Z" fill="#FFD515"/>
<path d="M7.99977 22.6669H15.9998H23.9998M7.99977 18.4935C6.64772 18.2032 5.46129 17.3991 4.69077 16.2507C3.92024 15.1024 3.62587 13.6997 3.86974 12.3385C4.11362 10.9773 4.87667 9.76405 5.99794 8.95467C7.11921 8.14528 8.51102 7.80306 9.87977 8.0002C10.2166 7.23571 10.6912 6.53969 11.2798 5.94686C11.899 5.32602 12.6347 4.83345 13.4447 4.49736C14.2546 4.16128 15.1229 3.98828 15.9998 3.98828C16.8767 3.98828 17.745 4.16128 18.5549 4.49736C19.3648 4.83345 20.1005 5.32602 20.7198 5.94686C21.3084 6.53969 21.7829 7.23571 22.1198 8.0002C23.4885 7.80306 24.8803 8.14528 26.0016 8.95467C27.1229 9.76405 27.8859 10.9773 28.1298 12.3385C28.3737 13.6997 28.0793 15.1024 27.3088 16.2507C26.5383 17.3991 25.3518 18.2032 23.9998 18.4935V28.0002H7.99977V18.4935Z" stroke="white" stroke-linecap="square"/>
</svg>
