<svg width="12" height="12" viewBox="0 0 12 12" fill="none" xmlns="http://www.w3.org/2000/svg">
<g clip-path="url(#clip0_2522_536)">
<path d="M3.85728 10.7144L0.428711 11.5716L1.28585 9.00014V1.28585C1.28585 1.05853 1.37616 0.840508 1.53691 0.679762C1.69765 0.519017 1.91567 0.428711 2.143 0.428711H10.7144C10.9418 0.428711 11.1598 0.519017 11.3205 0.679762C11.4813 0.840508 11.5716 1.05853 11.5716 1.28585V9.85728C11.5716 10.0846 11.4813 10.3026 11.3205 10.4634C11.1598 10.6241 10.9418 10.7144 10.7144 10.7144H3.85728Z" stroke="#EF5246" stroke-linecap="round" stroke-linejoin="round"/>
<path d="M6.42871 2.57178V5.14321" stroke="#EF5246" stroke-linecap="round" stroke-linejoin="round"/>
<path d="M6.42857 8.14279C6.66526 8.14279 6.85714 7.95091 6.85714 7.71422C6.85714 7.47752 6.66526 7.28564 6.42857 7.28564C6.19188 7.28564 6 7.47752 6 7.71422C6 7.95091 6.19188 8.14279 6.42857 8.14279Z" stroke="#EF5246" stroke-linecap="round" stroke-linejoin="round"/>
</g>
<defs>
<clipPath id="clip0_2522_536">
<rect width="12" height="12" fill="white"/>
</clipPath>
</defs>
</svg>
