<svg width="14" height="14" viewBox="0 0 14 14" fill="none" xmlns="http://www.w3.org/2000/svg">
<path d="M11.6668 4.08301H6.41683M8.16683 9.91634H2.91683M8.16683 9.91634C8.16683 10.8828 8.95033 11.6663 9.91683 11.6663C10.8833 11.6663 11.6668 10.8828 11.6668 9.91634C11.6668 8.94984 10.8833 8.16634 9.91683 8.16634C8.95033 8.16634 8.16683 8.94984 8.16683 9.91634ZM5.8335 4.08301C5.8335 5.04951 5.04999 5.83301 4.0835 5.83301C3.117 5.83301 2.3335 5.04951 2.3335 4.08301C2.3335 3.11651 3.117 2.33301 4.0835 2.33301C5.04999 2.33301 5.8335 3.11651 5.8335 4.08301Z" stroke="#5f5f5f" stroke-width="1.2" stroke-linecap="square"/>
</svg>
