<svg width="32" height="32" viewBox="0 0 32 32" fill="none" xmlns="http://www.w3.org/2000/svg">
<path d="M27.5 9.7V24.4C27.5 24.957 27.2308 25.4911 26.7515 25.8849C26.2722 26.2787 25.6222 26.5 24.9444 26.5H7.05556C6.37778 26.5 5.72776 26.2787 5.2485 25.8849C4.76925 25.4911 4.5 24.957 4.5 24.4V9.7L8.33333 5.5H23.6667L27.5 9.7ZM4.5 9.7H27.5M21.1111 13.9C21.1111 15.0139 20.5726 16.0822 19.6141 16.8698C18.6556 17.6575 17.3556 18.1 16 18.1C14.6444 18.1 13.3444 17.6575 12.3859 16.8698C11.4274 16.0822 10.8889 15.0139 10.8889 13.9" stroke="#8D8D8D" stroke-width="2" stroke-linecap="square"/>
</svg>
