<svg width="19" height="11" viewBox="0 0 19 11" fill="none" xmlns="http://www.w3.org/2000/svg">
<path d="M2.14355 6.66699C2.7356 6.66699 3.21582 7.11471 3.21582 7.66699V9.66699C3.21563 10.2191 2.73549 10.667 2.14355 10.667H1.07227C0.480333 10.667 0.000188633 10.2191 0 9.66699V7.66699C0 7.11471 0.480216 6.66699 1.07227 6.66699H2.14355ZM7.14648 4.66699C7.73853 4.66699 8.21875 5.11471 8.21875 5.66699V9.66699C8.21856 10.2191 7.73842 10.667 7.14648 10.667H6.07422C5.48251 10.6668 5.00312 10.219 5.00293 9.66699V5.66699C5.00293 5.11486 5.48239 4.66723 6.07422 4.66699H7.14648ZM12.1494 2.33301C12.7413 2.33303 13.2215 2.78089 13.2217 3.33301V9.66699C13.2215 10.2191 12.7413 10.667 12.1494 10.667H11.0771C10.4853 10.6669 10.0051 10.2191 10.0049 9.66699V3.33301C10.0051 2.78094 10.4853 2.33312 11.0771 2.33301H12.1494ZM17.1523 0C17.7442 0.000157665 18.2236 0.447812 18.2236 1V9.66699C18.2234 10.219 17.7441 10.6668 17.1523 10.667H16.0801C15.4881 10.667 15.008 10.2191 15.0078 9.66699V1C15.0078 0.447715 15.488 0 16.0801 0H17.1523Z" fill="black"/>
</svg>
