<svg width="390" height="80" viewBox="0 0 390 80" fill="none" xmlns="http://www.w3.org/2000/svg">
<path d="M0 10C0 4.4772 4.51067 4.69126e-05 10.0335 2.08885e-05C69.4617 -0.000259142 89.5925 0.000387039 137.64 0.131171C141.263 0.141031 144.646 2.09437 146.081 5.42064C150.851 16.4848 154 30.5795 160.68 40C172.64 54 181.48 57 197.08 57.5C212.68 58 228.243 45.7584 237.12 31.2584C242.535 22.4135 242.537 14.3114 244.83 6.03702C245.874 2.26681 249.528 9.09885e-05 253.441 0.000121821C300.621 0.000493641 321.137 9.95297e-05 379.967 5.75552e-05C385.49 5.36147e-05 390 4.47721 390 10.0001V70C390 75.5229 385.523 80 380 80H10C4.47715 80 0 75.5228 0 70V10Z" fill="white"/>
</svg>
