<svg width="17" height="11" viewBox="0 0 17 11" fill="none" xmlns="http://www.w3.org/2000/svg">
<path fill-rule="evenodd" clip-rule="evenodd" d="M5.84083 8.42683C7.21369 7.34456 9.22479 7.34456 10.5977 8.42683C10.6666 8.48504 10.7071 8.56765 10.709 8.65437C10.7108 8.74093 10.6737 8.82413 10.6074 8.88484L8.45801 10.9073C8.395 10.9667 8.3084 11.0001 8.21876 11.0001C8.12926 11 8.0434 10.9666 7.98047 10.9073L5.83008 8.88484C5.76407 8.82412 5.72764 8.7408 5.7295 8.65437C5.73147 8.56761 5.77173 8.48499 5.84083 8.42683ZM2.97266 5.72956C5.93049 3.16527 10.511 3.16519 13.4688 5.72956C13.5354 5.78968 13.5733 5.8726 13.5742 5.95905C13.5751 6.04535 13.5388 6.12825 13.4736 6.18952L12.2305 7.36042C12.1025 7.47957 11.8959 7.48224 11.7647 7.36628C10.7933 6.54651 9.52911 6.09179 8.21876 6.09187C6.90942 6.09246 5.64733 6.54714 4.67676 7.36628C4.54542 7.4826 4.33804 7.47986 4.20997 7.36042L2.96778 6.18952C2.90234 6.12831 2.86543 6.04546 2.86622 5.95905C2.86709 5.87249 2.90585 5.7897 2.97266 5.72956ZM0.103522 3.03913C4.64011 -1.01306 11.7974 -1.01303 16.334 3.03913C16.3997 3.09933 16.437 3.1818 16.4375 3.26765C16.438 3.35345 16.4018 3.43626 16.3369 3.49714L15.0928 4.66706C14.9646 4.78716 14.7561 4.78824 14.626 4.66999C12.8976 3.1386 10.6035 2.28435 8.21876 2.28425C5.8339 2.28434 3.54006 3.13856 1.81153 4.66999C1.68145 4.78842 1.47284 4.78734 1.34473 4.66706L0.100592 3.49714C0.0357841 3.43623 -0.000539257 3.35342 6.05248e-06 3.26765C0.000612028 3.1818 0.0378058 3.09929 0.103522 3.03913Z" fill="black"/>
</svg>
