<svg width="24" height="22" viewBox="0 0 24 22" fill="none" xmlns="http://www.w3.org/2000/svg">
<path d="M2 2.75H8C9.06087 2.75 10.0783 3.13631 10.8284 3.82394C11.5786 4.51158 12 5.44421 12 6.41667V19.25C12 18.5207 11.6839 17.8212 11.1213 17.3055C10.5587 16.7897 9.79565 16.5 9 16.5H2V2.75Z" stroke="#3C3C3C" stroke-width="2" stroke-linecap="round" stroke-linejoin="round"/>
<path d="M22 2.75H16C14.9391 2.75 13.9217 3.13631 13.1716 3.82394C12.4214 4.51158 12 5.44421 12 6.41667V19.25C12 18.5207 12.3161 17.8212 12.8787 17.3055C13.4413 16.7897 14.2044 16.5 15 16.5H22V2.75Z" stroke="#3C3C3C" stroke-width="2" stroke-linecap="round" stroke-linejoin="round"/>
</svg>
